# xmcd CD database file
#
# Track frame offsets:
#	150
#	20240
#	41587
#	61722
#
# Disc length: 1106 seconds
#
# Revision: 0
# Processed by: cddbd v1.5PL3 Copyright (c) Steve Scherf et al.
# Submitted via: CDex 1.50beta8
#
DISCID=2d045004
DTITLE=仲間由紀恵 - 遠い日のメロディー
DYEAR=1997
DGENRE=Vocal
TTITLE0=遠い日のメロディー
TTITLE1=ヴィオラの夢
TTITLE2=遠い日のメロディー（オリジナル・カラオケ）
TTITLE3=ヴィオラの夢（オリジナル・カラオケ）
EXTD=YEAR: 1997
EXTT0=
EXTT1=
EXTT2=
EXTT3=
PLAYORDER=
